<?xml version="1.0" standalone="no"?>
<!DOCTYPE svg PUBLIC "-//W3C//DTD SVG 20010904//EN"
 "http://www.w3.org/TR/2001/REC-SVG-20010904/DTD/svg10.dtd">
<svg version="1.0" xmlns="http://www.w3.org/2000/svg"
 width="1024.000000pt" height="1024.000000pt" viewBox="0 0 1024.000000 1024.000000"
 preserveAspectRatio="xMidYMid meet">

<g transform="translate(0.000000,1024.000000) scale(0.100000,-0.100000)"
fill="#000000" stroke="none">
<path d="M3895 9827 c-92 -36 -154 -98 -181 -180 -24 -73 -16 -190 18 -248 34
-58 94 -114 141 -134 l37 -15 0 -200 0 -200 -429 0 c-251 0 -462 -4 -507 -11
-171 -23 -339 -108 -469 -234 -152 -147 -238 -316 -263 -513 l-7 -56 -65 -11
c-112 -19 -196 -73 -266 -170 -83 -117 -122 -272 -110 -441 20 -291 164 -487
368 -502 l67 -5 11 -56 c54 -275 221 -492 465 -607 157 -73 306 -99 528 -91
l147 5 0 -68 0 -69 -47 -6 c-165 -23 -291 -61 -440 -130 -104 -49 -156 -82
-230 -149 -36 -32 -70 -52 -114 -66 -101 -31 -185 -87 -289 -190 -236 -235
-441 -658 -546 -1132 -26 -113 -28 -140 -28 -328 0 -195 2 -210 28 -295 69
-227 206 -382 428 -484 129 -59 316 -114 494 -144 l79 -14 -2 -39 c-3 -47 -41
-495 -83 -984 -17 -195 -37 -434 -45 -530 -24 -284 -11 -249 -118 -303 -192
-95 -327 -288 -344 -489 l-6 -68 -196 0 c-205 -1 -216 -3 -239 -47 -18 -34
-14 -62 13 -88 l24 -25 2421 0 2421 0 24 25 c33 32 33 78 0 110 l-24 25 -316
0 -315 0 0 33 c-1 65 -31 174 -71 256 -71 143 -217 267 -366 311 -39 12 -42
15 -47 59 -8 59 -113 1327 -142 1705 l-7 89 34 -6 c19 -4 108 -9 200 -13 180
-7 216 -2 269 42 28 24 31 25 90 13 172 -34 365 41 483 187 148 181 229 517
183 757 -15 75 -32 122 -61 167 -16 25 -15 28 55 144 117 193 142 248 148 327
6 82 -12 137 -60 188 -56 60 -94 70 -330 86 -117 8 -230 15 -250 15 -35 0 -39
3 -63 54 -14 30 -49 90 -77 133 -140 215 -310 375 -513 484 -44 23 -111 64
-150 90 -156 105 -373 190 -580 229 -115 21 -105 13 -105 84 l0 64 263 5 c228
4 272 8 342 26 176 48 337 151 444 283 70 86 146 242 167 345 17 81 17 81 53
88 63 12 139 55 181 102 49 56 104 165 127 253 23 89 23 291 0 380 -23 88 -78
197 -127 253 -42 48 -145 107 -186 107 -20 0 -24 6 -29 48 -12 98 -27 168 -52
236 -102 286 -365 503 -659 546 -38 5 -282 10 -541 10 l-473 0 0 200 0 200 40
20 c57 29 109 85 138 149 68 147 2 330 -143 397 -56 27 -166 32 -220 11z m160
-167 c94 -58 78 -210 -26 -241 -130 -39 -229 119 -137 219 43 46 109 55 163
22z m1080 -995 c196 -42 357 -175 445 -369 29 -62 64 -186 55 -194 -2 -2 -11
14 -21 35 -29 61 -131 156 -212 197 -135 68 -90 66 -1188 66 -878 0 -997 -2
-1045 -16 -172 -51 -298 -180 -344 -355 -22 -81 -21 -1126 0 -1218 57 -238
262 -429 524 -485 l66 -14 -180 -1 c-256 0 -365 23 -512 110 -73 44 -181 152
-227 227 -41 68 -80 167 -91 229 -6 41 -5 44 44 93 64 64 114 153 142 255 19
67 23 105 23 240 1 138 -2 171 -22 240 -32 111 -76 187 -143 250 l-58 53 9 58
c29 180 139 368 273 470 76 57 189 111 271 129 95 21 2093 21 2191 0z m239
-599 c74 -36 128 -91 165 -170 31 -63 54 -171 29 -131 -7 11 -36 43 -65 72
-79 80 -97 83 -463 83 -360 0 -374 -3 -456 -85 -38 -37 -57 -66 -69 -106 l-17
-54 -144 0 -144 0 -16 52 c-21 67 -72 126 -138 161 l-51 27 -315 0 -315 0 -54
-30 c-65 -36 -115 -100 -132 -167 l-11 -48 -65 0 -66 0 6 75 c9 123 65 223
163 291 96 66 40 63 1119 61 l980 -2 59 -29z m-3047 -233 c83 -67 129 -226
120 -415 -8 -175 -59 -303 -136 -343 -31 -15 -121 -21 -121 -7 0 4 14 27 30
50 67 99 95 229 87 396 -7 146 -40 243 -109 322 l-32 37 62 -5 c50 -3 69 -10
99 -35z m3553 -8 c21 -13 72 -98 92 -153 29 -83 36 -255 14 -355 -30 -133
-102 -247 -157 -247 -18 0 -19 12 -19 389 l0 390 30 -9 c16 -5 34 -11 40 -15z
m-3771 -103 c32 -63 44 -152 38 -285 -5 -129 -23 -207 -58 -251 -27 -34 -43
-33 -73 7 -38 49 -56 135 -56 264 0 131 13 202 46 261 20 34 30 42 54 42 24 0
33 -7 49 -38z m1892 23 c61 -32 69 -60 69 -258 0 -195 -4 -214 -60 -261 -51
-42 -94 -48 -339 -44 -212 3 -228 4 -261 25 -20 12 -46 40 -58 61 -21 37 -22
52 -22 227 l0 187 39 39 39 39 281 0 c235 0 287 -3 312 -15z m1380 -8 c56 -38
60 -53 57 -253 -3 -177 -4 -181 -30 -221 -49 -74 -67 -78 -368 -78 -264 0
-265 0 -310 25 -27 15 -53 41 -67 65 -21 37 -23 52 -23 208 0 185 5 204 60
251 l32 26 307 0 c304 0 308 0 342 -23z m-930 -207 l36 -10 5 -113 c3 -93 8
-121 30 -168 35 -76 85 -129 155 -165 l58 -29 305 0 c304 0 305 0 355 25 88
43 163 133 186 225 4 17 7 -78 6 -210 -3 -222 -4 -244 -25 -295 -34 -83 -92
-160 -161 -212 -108 -83 -46 -79 -1102 -76 l-934 3 -60 32 c-102 54 -180 143
-226 258 -23 58 -24 70 -27 398 l-3 337 64 0 65 0 4 -127 c3 -106 7 -136 26
-178 29 -63 83 -119 147 -153 l50 -27 290 0 c288 0 290 0 340 25 66 33 122 90
153 159 22 48 27 74 30 176 3 73 9 123 16 127 16 11 175 9 217 -2z m-205
-2189 c86 -40 157 -109 197 -190 30 -61 32 -73 32 -166 -1 -116 -13 -146 -109
-275 -55 -73 -86 -145 -86 -202 0 -27 -1 -28 -55 -28 l-55 0 0 124 0 124 50
36 c81 58 106 121 65 166 -32 35 -70 26 -131 -31 l-54 -52 -54 52 c-60 56 -93
64 -126 31 -41 -41 -17 -104 66 -170 l44 -35 0 -122 0 -123 -60 0 c-56 0 -60
2 -60 23 0 54 -35 136 -97 225 -82 117 -107 190 -99 284 9 99 39 169 101 236
120 130 279 164 431 93z m1384 -451 c795 -36 864 -41 890 -65 11 -10 20 -29
20 -42 0 -29 11 -29 -434 -3 -186 11 -423 23 -527 26 -224 8 -257 1 -306 -69
-29 -41 -152 -257 -479 -844 -225 -403 -296 -523 -311 -523 -22 0 -36 51 -26
96 5 22 135 267 288 545 154 277 316 574 362 659 84 157 138 224 186 233 12 2
42 2 67 0 25 -1 146 -7 270 -13z m777 -852 c-3 -8 -6 -5 -6 6 -1 11 2 17 5 13
3 -3 4 -12 1 -19z m-4570 -75 c-3 -10 -5 -2 -5 17 0 19 2 27 5 18 2 -10 2 -26
0 -35z m2248 -1387 c1 0 8 -44 17 -96 24 -140 175 -925 270 -1398 l83 -412
-452 0 c-380 0 -453 2 -453 14 0 8 22 123 49 257 84 414 157 787 236 1209 42
223 78 413 81 423 5 17 13 18 87 12 45 -4 82 -8 82 -9z"/>
<path d="M3671 7577 c-40 -20 -64 -62 -69 -120 -12 -142 121 -220 207 -121 28
31 31 41 31 102 0 49 -5 76 -20 100 -30 49 -96 67 -149 39z"/>
<path d="M4931 7577 c-61 -31 -89 -134 -58 -210 17 -40 68 -77 105 -77 126 0
180 197 77 278 -31 25 -86 29 -124 9z"/>
<path d="M3977 6912 c-10 -11 -17 -35 -17 -57 0 -124 305 -222 529 -170 87 21
199 81 222 119 37 60 15 126 -41 126 -13 0 -46 -16 -74 -35 -86 -59 -155 -78
-271 -73 -108 4 -183 29 -247 83 -35 29 -78 32 -101 7z"/>
<path d="M4554 3515 c-9 -14 -15 -28 -12 -30 2 -2 12 9 22 25 21 36 13 40 -10
5z"/>
<path d="M4471 3443 c-1 -62 12 -75 34 -33 15 28 15 30 -4 30 -14 0 -21 8 -24
28 -2 15 -5 4 -6 -25z"/>
<path d="M8950 7755 c-80 -23 -230 -68 -335 -98 -237 -69 -240 -70 -261 -102
-23 -35 -9 -90 29 -119 31 -23 -4 -29 280 48 70 19 127 31 127 27 0 -10 -367
-371 -475 -467 -229 -205 -579 -478 -855 -667 -231 -157 -542 -337 -838 -484
-161 -81 -300 -155 -307 -167 -8 -11 -15 -31 -15 -44 0 -34 52 -82 88 -82 81
0 649 293 994 514 522 332 968 687 1387 1103 106 106 195 193 196 193 1 0 -11
-64 -26 -142 -16 -79 -32 -173 -35 -209 -6 -59 -4 -69 14 -87 44 -44 119 -35
146 17 8 14 46 187 86 384 79 388 79 391 23 416 -37 17 -67 13 -223 -34z"/>
<path d="M8674 6610 c-12 -5 -29 -19 -38 -32 -14 -20 -16 -142 -16 -1290 l0
-1268 -95 0 -95 0 0 954 0 955 -24 28 -24 28 -302 0 -302 0 -24 -28 -24 -28 0
-955 0 -954 -90 0 -90 0 0 691 0 691 -29 29 -29 29 -287 0 c-177 0 -294 -4
-306 -10 -50 -27 -49 -17 -49 -783 0 -474 4 -724 11 -744 6 -18 24 -38 42 -47
30 -16 123 -17 1204 -14 l1172 3 23 23 23 23 3 1325 2 1325 -29 30 -29 29
-289 -1 c-158 0 -298 -4 -309 -9z m496 -1368 c0 -665 -2 -1210 -4 -1213 -2 -2
-90 -3 -194 -1 l-190 3 -1 1209 -1 1210 195 0 194 0 1 -1208z m-900 -314 l0
-903 -190 0 -190 0 0 903 0 902 190 0 190 0 0 -902z m-880 -270 l0 -637 -187
2 -188 2 -3 625 c-1 344 0 630 2 635 2 6 75 10 190 10 l186 0 0 -637z"/>
<path d="M1235 6535 c-5 -2 -23 -6 -38 -9 -16 -4 -48 -25 -73 -48 -46 -42 -74
-109 -74 -172 1 -71 53 -156 118 -192 l32 -19 0 -173 c0 -185 6 -213 56 -279
l25 -33 -79 0 -79 0 -32 40 c-110 137 -332 101 -387 -63 -22 -66 -14 -146 20
-198 30 -45 101 -89 155 -96 98 -13 204 46 237 132 l17 45 123 0 124 0 0 -138
0 -138 -36 -35 c-67 -63 -83 -150 -41 -224 70 -124 243 -121 307 6 22 42 26
102 10 146 -6 15 -31 47 -55 69 l-45 42 0 136 0 136 184 0 c102 0 196 4 210
10 40 15 50 45 48 151 l-3 97 43 25 c206 121 120 438 -118 437 -46 0 -130 -37
-161 -71 -35 -39 -63 -110 -63 -164 0 -86 63 -189 130 -210 17 -5 20 -15 20
-61 l0 -54 -164 0 -164 0 -61 69 -61 69 1 163 0 164 47 31 c121 79 130 273 17
360 -56 42 -143 65 -190 49z m98 -172 c45 -51 17 -123 -49 -123 -63 0 -95 65
-58 118 19 28 83 31 107 5z m611 -355 c25 -35 20 -83 -10 -107 -43 -34 -86
-26 -109 20 -20 37 -19 51 6 83 27 35 90 37 113 4z m-982 -445 c28 -25 24 -77
-9 -103 -64 -50 -145 30 -97 98 19 27 78 30 106 5z m530 -528 c10 -22 9 -29
-9 -46 -26 -26 -60 -18 -69 17 -13 52 56 77 78 29z"/>
<path d="M8308 3440 c-81 -4 -101 -8 -118 -26 -26 -25 -29 -74 -7 -108 16 -24
23 -25 113 -28 l95 -3 -123 -133 c-450 -485 -902 -790 -1448 -976 -69 -24
-167 -53 -219 -66 -52 -13 -102 -31 -112 -41 -43 -43 -4 -129 59 -129 72 0
402 108 612 200 428 187 888 524 1230 900 l88 97 4 -63 c5 -78 24 -104 80
-104 28 0 46 7 63 25 25 24 25 26 25 214 0 186 0 190 -24 218 -23 27 -27 28
-123 28 -54 0 -142 -2 -195 -5z"/>
<path d="M8363 2513 c-17 -25 -18 -77 -18 -793 0 -599 3 -770 13 -787 21 -37
72 -45 274 -41 180 3 188 4 210 26 l23 23 0 780 0 781 -24 19 c-21 17 -41 19
-242 19 l-219 0 -17 -27z"/>
<path d="M7651 2096 c-51 -28 -50 -23 -51 -594 0 -597 -2 -582 68 -602 23 -7
108 -10 230 -8 l194 3 24 28 24 28 0 539 c0 397 -3 546 -12 565 -22 49 -50 55
-260 55 -141 -1 -199 -4 -217 -14z m332 -598 l-3 -453 -112 0 -112 0 -4 453
-3 452 118 0 118 0 -2 -452z"/>
<path d="M6892 1707 c-22 -23 -22 -27 -22 -395 0 -355 1 -373 19 -391 29 -29
66 -33 269 -29 l184 3 24 28 24 28 0 369 0 369 -26 20 c-25 20 -39 21 -239 21
-208 0 -212 0 -233 -23z m348 -394 l0 -273 -110 0 -110 0 0 273 0 272 110 0
110 0 0 -272z"/>
</g>
</svg>
